True Lies (1994)

Director: James Cameron

True Lies is a 1994 American action-comedy film directed by James Cameron and starring Arnold Schwarzenegger, Jamie Lee Curtis, Tom Arnold, Bill Paxton, Tia Carrere, Charlton Heston, and Art Malik. Eliza Dushku also appears in the film in one of her first major film roles. True Lies is an extended remake of the 1991 French film La Totale!, which was directed by Claude Zidi and starred Thierry Lhermitte and Miou-Miou. The film was nominated for an Academy Award for Best Visual Effects and Curtis won a Golden Globe for her comedic portrayal of Helen Tasker.

True Lies was the first Lightstorm Entertainment project to be distributed under Cameron's multi-million dollar production deal with 20th Century Fox, as well as the first major production for the visual effects company Digital Domain, which was co-founded by Cameron. True Lies was the only feature film collaboration outside of the Terminator series to feature Cameron, Schwarzenegger, and Brad Fiedel as director, actor, and composer respectively.

Upon its release, True Lies was one of the most expensive films ever made, costing anywhere from $100 to $120 million.

The film relies heavily on stunts, often performed by Schwarzenegger and Curtis themselves. The film earned $146 million domestically and $232.6 million abroad, making it third best-grossing movie of 1994, and also a comeback for Schwarzenegger following the disastrous Last Action Hero of the previous summer. For her performance, Jamie Lee Curtis received a 1994 Golden Globe for Best Actress in a Musical/Comedy.

The film was criticized as sexist, or even misogynistic, for its treatment of female characters, such as the hero using his agency's resources to stalk and frighten his wife. Others perceived it as conveying a strong anti-Arab or anti-Muslim prejudice.

Media Info:
General
Complete name                    : J:\Seeding\True Lies (1994)[DVDRip][big_dad_e™]\True Lies (1994)[DVDRip][big_dad_e™].avi
Format                           : AVI
Format/Info                      : Audio Video Interleave
Format profile                   : OpenDML
File size                        : 2.88 GiB
Duration                         : 2h 20mn
Overall bit rate                 : 2 931 Kbps
Writing application              : Lavf51.12.1

Video
ID                               : 0
Format                           : MPEG-4 Visual
Format profile                   : Simple@L1
Format settings, BVOP            : No
Format settings, QPel            : No
Format settings, GMC             : No warppoints
Format settings, Matrix          : Default (H.263)
Codec ID                         : DX50
Codec ID/Hint                    : DivX 5
Duration                         : 2h 20mn
Bit rate                         : 2 600 Kbps
Width                            : 720 pixels
Height                           : 540 pixels
Display aspect ratio             : 4:3
Frame rate                       : 23.976 fps
Color space                      : YUV
Chroma subsampling               : 4:2:0
Bit depth                        : 8 bits
Scan type                        : Progressive
Bits/(Pixel*Frame)               : 0.279
Stream size                      : 2.56 GiB (89%)
Writing library                  : Lavc51.40.4

Audio
ID                               : 1
Format                           : MPEG Audio
Format version                   : Version 1
Format profile                   : Layer 3
Mode                             : Joint stereo
Codec ID                         : 55
Codec ID/Hint                    : MP3
Duration                         : 2h 20mn
Bit rate mode                    : Constant
Bit rate                         : 320 Kbps
Channel(s)                       : 2 channels
Sampling rate                    : 44.1 KHz
Stream size                      : 322 MiB (11%)
Alignment                        : Aligned on interleaves
Interleave, duration             : 26 ms (0.63 video frame)
Writing library                  : LAME3.97

File Scan:
Malwarebytes' Anti-Malware 1.50
www.malwarebytes.org

Database version: 5237

Windows 5.1.2600 Service Pack 3
Internet Explorer 8.0.6001.18702

12/3/2010 6:51:00 PM
mbam-log-2010-12-03 (18-50-59).txt

Scan type: Quick scan
Objects scanned: 5
Time elapsed: 40 second(s)

Memory Processes Infected: 0
Memory Modules Infected: 0
Registry Keys Infected: 0
Registry Values Infected: 0
Registry Data Items Infected: 0
Folders Infected: 0
Files Infected: 0

Memory Processes Infected:
(No malicious items detected)

Memory Modules Infected:
(No malicious items detected)

Registry Keys Infected:
(No malicious items detected)

Registry Values Infected:
(No malicious items detected)

Registry Data Items Infected:
(No malicious items detected)

Folders Infected:
(No malicious items detected)

Files Infected:
(No malicious items detected)

When using TPB please read these important notes:
  
01- Anti-malware apps may warn about keygens, patches, cracks, etc., because of 
    their capabilities, (generating codes, etc.). Sometimes they're added to 
    the virus/spyware database and will be detected as malware. If you don't trust
    the keygens, patches, cracks, etc., don't use them. 
    
02- Before running .exe-files, keygens, patches, cracks, etc., always check first 
    if they can be unpacked. Often some third party added a virus to the 
    original file, repacked it and uploaded it again.

03- Letting anti-malware apps send scan results to their companies can cause
    keygens, patches, cracks, etc., to be added to their virus-database.

04- Firewalls which are set to automatically determine connections will allow 
    apps & malware!. Avoid this by manually configuring your firewall.

05- Usually (new) torrents with many downloads and seeders in a brief period is
    suspicious! Torrents with the Skull & Crossbones icon are trusted.

06- Some people use multiple accounts and post fake comments 
    and/or files trying to spread confusion. They seldom seriously
    comment or have any torrents, or a just a few to look passable.

07- Clicking on unknown links can cause malware to be installed on your machine.
  
08- In general often there are more fake and negative comments than reliable and
    positive comments.

09- In some countries uploading/downloading copyright protected material is 
    forbidden, but showing some appreciation to reliable up-loaders is not.

10- Posting fake and negative comments or fake/infected uploads on TPB can result
    in getting banned from TPB!

Requests?  Find me on SuprBay.
 

For reporting bad or suspicious torrents:  
http://forum.suprbay.org/forumdisplay.php?fid=29

For more of my torrents: 
https://thepiratebay.org/user/big_dad_e/  (Secured)

All torrents scanned with:
Norton Anti-virus
Malwarebytes' Anti-malware
 
http://www.pirate-party.us/

ALWAYS SEED & THANKS SEEDERS!